<svg xmlns="http://www.w3.org/2000/svg" version="1.1" xmlns:xlink="http://www.w3.org/1999/xlink" width="500" height="500"><svg viewBox="0 0 500 500" version="1.1" xmlns="http://www.w3.org/2000/svg" xmlns:xlink="http://www.w3.org/1999/xlink" xml:space="preserve" xmlns:serif="http://www.serif.com/" style="fill-rule:evenodd;clip-rule:evenodd;stroke-linejoin:round;stroke-miterlimit:2;">
    <g transform="matrix(19.9984,0,0,19.9984,10.0193,10.1439)">
        <path d="M12,18C11.998,20.193 10.193,21.996 8,21.996C5.806,21.996 4,20.19 4,17.996C4,17.824 4.011,17.653 4.033,17.483C2.778,16.775 1.999,15.441 1.999,14C1.999,12.796 2.543,11.654 3.477,10.895C3.163,10.312 2.999,9.661 2.999,8.999C2.999,7.179 4.241,5.578 6.003,5.125C6.001,5.08 6,5.036 6,4.991C6,3.345 7.354,1.991 9,1.991C10.646,1.991 12,3.345 12,4.991C12,3.345 13.354,1.991 15,1.991C16.646,1.991 18,3.345 18,4.991C18,5.036 17.999,5.08 17.997,5.125C19.759,5.578 21.001,7.179 21.001,8.999C21.001,9.661 20.837,10.312 20.523,10.895C21.457,11.654 22.001,12.796 22.001,14C22.001,15.441 21.222,16.775 19.967,17.483C19.989,17.653 20,17.824 20,17.996C20,20.19 18.194,21.996 16,21.996C13.807,21.996 12.002,20.193 12,18Z" style="fill:rgb(246,100,183);"></path>
    </g>
    <g transform="matrix(19.8633,0,0,19.8605,11.6408,11.7978)">
        <path d="M12,20.197C11.217,21.605 9.712,22.567 8,22.567C5.492,22.567 3.429,20.504 3.429,17.996C3.429,17.925 3.43,17.854 3.433,17.783C2.187,16.938 1.428,15.521 1.428,14C1.428,12.776 1.919,11.609 2.778,10.755C2.547,10.2 2.428,9.603 2.428,8.999C2.428,7.067 3.652,5.351 5.44,4.702C5.59,2.876 7.138,1.42 9,1.42C10.252,1.42 11.361,2.078 12,3.063C12.639,2.078 13.748,1.42 15,1.42C16.862,1.42 18.41,2.876 18.56,4.702C20.348,5.351 21.572,7.067 21.572,8.999C21.572,9.603 21.453,10.2 21.222,10.755C22.081,11.609 22.572,12.776 22.572,14C22.572,15.521 21.813,16.938 20.567,17.783C20.57,17.854 20.571,17.925 20.571,17.996C20.571,20.504 18.508,22.567 16,22.567C14.288,22.567 12.783,21.605 12,20.197ZM11.429,4.991C11.429,3.659 10.332,2.563 9,2.563C7.668,2.563 6.571,3.659 6.571,4.991C6.571,5.027 6.572,5.063 6.574,5.1C6.574,5.1 6.574,5.101 6.574,5.102C6.59,5.493 6.701,5.875 6.896,6.215C7.054,6.488 6.96,6.838 6.686,6.995C6.413,7.153 6.063,7.059 5.906,6.785C5.745,6.505 5.623,6.206 5.542,5.896C4.359,6.452 3.571,7.656 3.571,8.999C3.571,9.35 3.625,9.699 3.73,10.031C3.748,10.021 3.766,10.011 3.785,10C4.06,9.847 4.409,9.947 4.562,10.223C4.715,10.498 4.615,10.847 4.339,11C4.162,11.098 3.995,11.211 3.838,11.339C3.831,11.345 3.823,11.351 3.815,11.356C3.028,12.007 2.571,12.977 2.571,14C2.571,15.235 3.238,16.378 4.314,16.985C4.322,16.99 4.331,16.995 4.339,17C4.847,17.281 5.419,17.429 6,17.429C6.315,17.428 6.571,17.684 6.571,18C6.572,18.315 6.316,18.571 6,18.571C5.52,18.572 5.044,18.496 4.59,18.349C4.769,20.067 6.238,21.424 8,21.424C9.879,21.424 11.426,19.88 11.429,18.001L11.429,18L11.429,11.968C10.851,12.673 10.084,13.224 9.19,13.539C8.892,13.644 8.566,13.487 8.461,13.19C8.356,12.892 8.513,12.566 8.81,12.461C10.301,11.936 11.336,10.561 11.429,8.984L11.429,5L11.429,4.991ZM12.571,18.001C12.574,19.88 14.121,21.424 16,21.424C17.762,21.424 19.231,20.067 19.41,18.349C18.956,18.496 18.48,18.572 18,18.571C17.684,18.571 17.428,18.315 17.429,18C17.429,17.684 17.685,17.428 18,17.429C18.581,17.429 19.153,17.281 19.661,17C19.669,16.995 19.678,16.99 19.686,16.985C20.762,16.378 21.429,15.235 21.429,14C21.429,12.977 20.972,12.007 20.185,11.356C20.177,11.351 20.169,11.345 20.162,11.339C20.005,11.211 19.838,11.098 19.661,11C19.385,10.847 19.285,10.498 19.438,10.223C19.591,9.947 19.94,9.847 20.215,10C20.234,10.011 20.252,10.021 20.27,10.031C20.375,9.699 20.429,9.35 20.429,8.999C20.429,7.657 19.641,6.453 18.458,5.896C18.378,6.206 18.255,6.506 18.094,6.786C17.936,7.059 17.587,7.153 17.313,6.995C17.04,6.837 16.946,6.488 17.104,6.214C17.295,5.884 17.405,5.513 17.426,5.132C17.425,5.121 17.426,5.11 17.426,5.1C17.428,5.063 17.429,5.027 17.429,4.991C17.429,3.659 16.332,2.563 15,2.563C13.668,2.563 12.571,3.659 12.571,4.991L12.571,8.984C12.664,10.561 13.699,11.936 15.19,12.461C15.487,12.566 15.644,12.892 15.539,13.19C15.434,13.487 15.108,13.644 14.81,13.539C13.916,13.224 13.149,12.673 12.571,11.968L12.571,18L12.571,18.001Z" style="fill:rgb(93,14,193);"></path>
    </g>
</svg><style>@media (prefers-color-scheme: light) { :root { filter: none; } }
@media (prefers-color-scheme: dark) { :root { filter: none; } }
</style></svg>